<svg width="44" height="52" viewBox="0 0 44 52" fill="none" xmlns="http://www.w3.org/2000/svg">
<path d="M9.12 42.424V40H10.308V47.62H9.12V43.468H7.128V42.424H9.12ZM4.272 43.876C3.92 44.524 3.452 45.048 2.868 45.448C2.284 45.84 1.616 46.076 0.864 46.156V45.064C1.712 44.944 2.392 44.548 2.904 43.876C3.416 43.196 3.7 42.336 3.756 41.296H0.996V40.264H7.536V41.296H4.956C4.932 41.824 4.844 42.348 4.692 42.868L7.836 45.208L7.164 46.072L4.272 43.876ZM10.524 49.048V50.116H1.584V46.852H2.796V49.048H10.524ZM19.607 41.464H11.855V40.36H20.819V47.128H19.607V41.464ZM21.479 48.664V49.756H11.243V48.664H13.235V44.548H14.423V48.664H16.439V44.548H17.639V48.664H21.479ZM28.9179 42.232H21.8739V41.188H24.7899V39.892H26.0019V41.188H28.9179V42.232ZM31.4139 40V50.248H30.2259V40H31.4139ZM26.0139 48.58C27.5899 48.58 28.7099 48.428 29.3739 48.124V49.204C29.0539 49.348 28.5979 49.456 28.0059 49.528C27.4219 49.6 26.7619 49.636 26.0259 49.636H21.8259V48.58H24.8139V47.056C24.0619 46.976 23.4739 46.756 23.0499 46.396C22.6259 46.028 22.4139 45.556 22.4139 44.98C22.4139 44.324 22.6819 43.808 23.2179 43.432C23.7619 43.048 24.4939 42.856 25.4139 42.856C26.3339 42.856 27.0619 43.048 27.5979 43.432C28.1419 43.808 28.4139 44.324 28.4139 44.98C28.4139 45.556 28.1979 46.028 27.7659 46.396C27.3419 46.764 26.7539 46.988 26.0019 47.068V48.58H26.0139ZM23.5419 44.98C23.5419 45.316 23.7019 45.592 24.0219 45.808C24.3499 46.016 24.8139 46.12 25.4139 46.12C26.0139 46.12 26.4739 46.016 26.7939 45.808C27.1219 45.592 27.2859 45.316 27.2859 44.98C27.2859 44.644 27.1219 44.368 26.7939 44.152C26.4739 43.936 26.0139 43.828 25.4139 43.828C24.8139 43.828 24.3499 43.936 24.0219 44.152C23.7019 44.368 23.5419 44.644 23.5419 44.98ZM43.1249 41.956V43.084H41.6849V45.664H40.4969V40H41.6849V41.956H43.1249ZM35.9969 43.372C35.6449 43.956 35.1689 44.432 34.5689 44.8C33.9769 45.16 33.3049 45.38 32.5529 45.46V44.392C33.3849 44.28 34.0529 43.944 34.5569 43.384C35.0689 42.816 35.3649 42.116 35.4449 41.284H32.6849V40.264H39.2249V41.284H36.6329C36.6089 41.668 36.5409 42.048 36.4289 42.424L39.5489 44.344L38.9609 45.232L35.9969 43.372ZM37.4489 46C38.7689 46 39.8289 46.172 40.6289 46.516C41.4369 46.86 41.8409 47.396 41.8409 48.124C41.8409 48.852 41.4369 49.388 40.6289 49.732C39.8289 50.076 38.7689 50.248 37.4489 50.248C36.1289 50.248 35.0649 50.076 34.2569 49.732C33.4569 49.388 33.0569 48.852 33.0569 48.124C33.0569 47.396 33.4569 46.86 34.2569 46.516C35.0649 46.172 36.1289 46 37.4489 46ZM37.4489 49.264C38.3769 49.264 39.1289 49.168 39.7049 48.976C40.2809 48.784 40.5689 48.5 40.5689 48.124C40.5689 47.748 40.2809 47.464 39.7049 47.272C39.1289 47.08 38.3769 46.984 37.4489 46.984C36.5289 46.984 35.7769 47.08 35.1929 47.272C34.6169 47.464 34.3289 47.748 34.3289 48.124C34.3289 48.5 34.6169 48.784 35.1929 48.976C35.7689 49.168 36.5209 49.264 37.4489 49.264Z" fill="white"/>
<g clip-path="url(#clip0_610_402)">
<path fill-rule="evenodd" clip-rule="evenodd" d="M12.2402 25.99C12.2402 26.3215 12.3719 26.6394 12.6063 26.8739C12.8408 27.1083 13.1587 27.24 13.4902 27.24H30.5115C30.843 27.24 31.1609 27.1083 31.3953 26.8739C31.6298 26.6394 31.7615 26.3215 31.7615 25.99V24.4275H12.2402V25.99ZM31.9527 11.8075L27.1402 14.295L23.0977 8.07622C22.9789 7.89333 22.8163 7.74304 22.6246 7.63899C22.4329 7.53494 22.2183 7.48044 22.0002 7.48044C21.7821 7.48044 21.5675 7.53494 21.3758 7.63899C21.1842 7.74304 21.0215 7.89333 20.9027 8.07622L16.8602 14.295L12.0477 11.8075C11.8284 11.6943 11.5816 11.6454 11.3357 11.6663C11.0898 11.6873 10.8549 11.7773 10.6579 11.9259C10.4609 12.0746 10.3099 12.2759 10.2223 12.5066C10.1347 12.7373 10.114 12.988 10.1627 13.23L12.0502 22.5525H31.9502L33.8377 13.23C34.0565 12.1525 32.929 11.3025 31.9527 11.8075ZM22.0002 6.42622C22.5207 6.42622 23.0199 6.21946 23.3879 5.85142C23.756 5.48338 23.9627 4.98421 23.9627 4.46372C23.9627 3.94323 23.756 3.44406 23.3879 3.07602C23.0199 2.70798 22.5207 2.50122 22.0002 2.50122C21.4797 2.50122 20.9806 2.70798 20.6125 3.07602C20.2445 3.44406 20.0377 3.94323 20.0377 4.46372C20.0377 4.98421 20.2445 5.48338 20.6125 5.85142C20.9806 6.21946 21.4797 6.42622 22.0002 6.42622M35.0377 7.48122C34.5172 7.48122 34.0181 7.68798 33.65 8.05602C33.282 8.42406 33.0752 8.92323 33.0752 9.44372C33.0752 9.96421 33.282 10.4634 33.65 10.8314C34.0181 11.1995 34.5172 11.4062 35.0377 11.4062C35.5582 11.4062 36.0574 11.1995 36.4254 10.8314C36.7935 10.4634 37.0002 9.96421 37.0002 9.44372C37.0002 8.92323 36.7935 8.42406 36.4254 8.05602C36.0574 7.68798 35.5582 7.48122 35.0377 7.48122M10.9265 9.44372C10.9265 8.92323 10.7197 8.42406 10.3517 8.05602C9.98362 7.68798 9.48445 7.48122 8.96396 7.48122C8.44348 7.48122 7.94431 7.68798 7.57627 8.05602C7.20823 8.42406 7.00146 8.92323 7.00146 9.44372C7.00146 9.96421 7.20823 10.4634 7.57627 10.8314C7.94431 11.1995 8.44348 11.4062 8.96396 11.4062C9.48445 11.4062 9.98362 11.1995 10.3517 10.8314C10.7197 10.4634 10.9265 9.96421 10.9265 9.44372" fill="white"/>
</g>
<defs>
<clipPath id="clip0_610_402">
<rect width="30" height="30" fill="white" transform="translate(7)"/>
</clipPath>
</defs>
</svg>
