<svg width="61" height="51" viewBox="0 0 61 51" fill="none" xmlns="http://www.w3.org/2000/svg">
<path d="M2.532 40.488H0.54V39.384H3.792V48.996H2.532V40.488ZM12.0498 40.884H5.08978V39.936H7.96978V38.82H9.16978V39.936H12.0498V40.884ZM15.8418 42.756H14.4018V45.54H13.2138V39H14.4018V41.616H15.8418V42.756ZM8.56978 45.408C8.00178 45.408 7.48578 45.328 7.02178 45.168C6.55778 45.008 6.19378 44.78 5.92978 44.484C5.66578 44.18 5.53378 43.824 5.53378 43.416C5.53378 43.016 5.66578 42.668 5.92978 42.372C6.19378 42.068 6.55778 41.836 7.02178 41.676C7.48578 41.516 8.00178 41.436 8.56978 41.436C9.13778 41.436 9.64978 41.516 10.1058 41.676C10.5698 41.836 10.9338 42.068 11.1978 42.372C11.4618 42.668 11.5938 43.016 11.5938 43.416C11.5938 43.824 11.4618 44.18 11.1978 44.484C10.9338 44.78 10.5698 45.008 10.1058 45.168C9.64978 45.328 9.13778 45.408 8.56978 45.408ZM8.56978 42.336C8.00178 42.336 7.54578 42.436 7.20178 42.636C6.85778 42.836 6.68578 43.096 6.68578 43.416C6.68578 43.736 6.85778 44 7.20178 44.208C7.54578 44.408 8.00178 44.508 8.56978 44.508C9.13778 44.508 9.59378 44.408 9.93778 44.208C10.2818 44 10.4538 43.736 10.4538 43.416C10.4538 43.104 10.2778 42.848 9.92578 42.648C9.58178 42.44 9.12978 42.336 8.56978 42.336ZM5.73778 46.092H14.4018V49.248H13.2018V47.112H5.73778V46.092ZM24.1808 43.164H20.4848V42.192H24.1808V41.052H20.4848V40.08H24.1808V39H25.3568V46.644H24.1808V43.164ZM22.9327 45.024C22.2928 45.28 21.1928 45.408 19.6328 45.408H16.1287V39.192H17.3288V44.4H19.7168C21.1888 44.4 22.2608 44.276 22.9327 44.028V45.024ZM25.5728 48.06V49.116H16.6327V46.248H17.8448V48.06H25.5728ZM38.211 44.436H29.403V39.18H30.579V40.62H37.035V39.18H38.211V44.436ZM37.035 43.38V41.676H30.579V43.38H37.035ZM38.931 46.632H34.419V49.488H33.195V46.632H28.695V45.528H38.931V46.632ZM46.37 41.232H39.326V40.188H42.242V38.892H43.454V40.188H46.37V41.232ZM48.866 39V49.248H47.678V39H48.866ZM43.466 47.58C45.042 47.58 46.162 47.428 46.826 47.124V48.204C46.506 48.348 46.05 48.456 45.458 48.528C44.874 48.6 44.214 48.636 43.478 48.636H39.278V47.58H42.266V46.056C41.514 45.976 40.926 45.756 40.502 45.396C40.078 45.028 39.866 44.556 39.866 43.98C39.866 43.324 40.134 42.808 40.67 42.432C41.214 42.048 41.946 41.856 42.866 41.856C43.786 41.856 44.514 42.048 45.05 42.432C45.594 42.808 45.866 43.324 45.866 43.98C45.866 44.556 45.65 45.028 45.218 45.396C44.794 45.764 44.206 45.988 43.454 46.068V47.58H43.466ZM40.994 43.98C40.994 44.316 41.154 44.592 41.474 44.808C41.802 45.016 42.266 45.12 42.866 45.12C43.466 45.12 43.926 45.016 44.246 44.808C44.574 44.592 44.738 44.316 44.738 43.98C44.738 43.644 44.574 43.368 44.246 43.152C43.926 42.936 43.466 42.828 42.866 42.828C42.266 42.828 41.802 42.936 41.474 43.152C41.154 43.368 40.994 43.644 40.994 43.98ZM60.5769 40.956V42.084H59.1369V44.664H57.9489V39H59.1369V40.956H60.5769ZM53.4489 42.372C53.0969 42.956 52.6209 43.432 52.0209 43.8C51.4289 44.16 50.7569 44.38 50.0049 44.46V43.392C50.8369 43.28 51.5049 42.944 52.0089 42.384C52.5209 41.816 52.8169 41.116 52.8969 40.284H50.1369V39.264H56.6769V40.284H54.0849C54.0609 40.668 53.9929 41.048 53.8809 41.424L57.0009 43.344L56.4129 44.232L53.4489 42.372ZM54.9009 45C56.2209 45 57.2809 45.172 58.0809 45.516C58.8889 45.86 59.2929 46.396 59.2929 47.124C59.2929 47.852 58.8889 48.388 58.0809 48.732C57.2809 49.076 56.2209 49.248 54.9009 49.248C53.5809 49.248 52.5169 49.076 51.7089 48.732C50.9089 48.388 50.5089 47.852 50.5089 47.124C50.5089 46.396 50.9089 45.86 51.7089 45.516C52.5169 45.172 53.5809 45 54.9009 45ZM54.9009 48.264C55.8289 48.264 56.5809 48.168 57.1569 47.976C57.7329 47.784 58.0209 47.5 58.0209 47.124C58.0209 46.748 57.7329 46.464 57.1569 46.272C56.5809 46.08 55.8289 45.984 54.9009 45.984C53.9809 45.984 53.2289 46.08 52.6449 46.272C52.0689 46.464 51.7809 46.748 51.7809 47.124C51.7809 47.5 52.0689 47.784 52.6449 47.976C53.2209 48.168 53.9729 48.264 54.9009 48.264Z" fill="#8186AD"/>
<path fill-rule="evenodd" clip-rule="evenodd" d="M37.109 8.30501C37.109 9.10854 36.9509 9.90421 36.6434 10.6466C36.336 11.389 35.8854 12.0636 35.3173 12.6318C34.7491 13.2 34.0747 13.6508 33.3323 13.9584C32.59 14.266 31.7944 14.4243 30.9908 14.4244C29.368 14.4246 27.8117 13.7801 26.664 12.6327C25.5164 11.4853 24.8716 9.92906 24.8715 8.30626C24.8714 7.50274 25.0296 6.70707 25.337 5.96467C25.6444 5.22228 26.095 4.54771 26.6632 3.97947C27.8105 2.83187 29.3668 2.18706 30.9896 2.18689C32.6124 2.18672 34.1688 2.83122 35.3164 3.97859C36.464 5.12596 37.1088 6.68222 37.109 8.30501M30.9902 16.2963C22.179 16.2963 18.7515 21.9038 18.7515 24.5125C18.7515 27.12 26.0477 27.815 30.9902 27.815C35.9327 27.815 43.229 27.12 43.229 24.5125C43.229 21.9038 39.8015 16.2963 30.9902 16.2963Z" fill="#8186AD"/>
</svg>
