<svg width="64" height="51" viewBox="0 0 64 51" fill="none" xmlns="http://www.w3.org/2000/svg">
<path d="M0.588 48.18L3.996 44.76C4.604 44.144 5.04 43.628 5.304 43.212C5.568 42.788 5.7 42.404 5.7 42.06C5.7 41.5 5.524 41.064 5.172 40.752C4.82 40.432 4.34 40.272 3.732 40.272C3.316 40.272 2.956 40.368 2.652 40.56C2.356 40.744 2.128 40.992 1.968 41.304C1.816 41.616 1.74 41.956 1.74 42.324H0.48C0.48 41.74 0.612 41.208 0.876 40.728C1.148 40.248 1.532 39.868 2.028 39.588C2.524 39.3 3.096 39.156 3.744 39.156C4.384 39.156 4.944 39.276 5.424 39.516C5.912 39.756 6.288 40.096 6.552 40.536C6.816 40.976 6.948 41.48 6.948 42.048C6.948 42.552 6.796 43.052 6.492 43.548C6.188 44.044 5.664 44.672 4.92 45.432L2.4 47.904H7.272V48.996H0.588V48.18ZM14.499 40.884H7.539V39.936H10.419V38.82H11.619V39.936H14.499V40.884ZM18.291 42.756H16.851V45.54H15.663V39H16.851V41.616H18.291V42.756ZM11.019 45.408C10.451 45.408 9.935 45.328 9.471 45.168C9.007 45.008 8.643 44.78 8.379 44.484C8.115 44.18 7.983 43.824 7.983 43.416C7.983 43.016 8.115 42.668 8.379 42.372C8.643 42.068 9.007 41.836 9.471 41.676C9.935 41.516 10.451 41.436 11.019 41.436C11.587 41.436 12.099 41.516 12.555 41.676C13.019 41.836 13.383 42.068 13.647 42.372C13.911 42.668 14.043 43.016 14.043 43.416C14.043 43.824 13.911 44.18 13.647 44.484C13.383 44.78 13.019 45.008 12.555 45.168C12.099 45.328 11.587 45.408 11.019 45.408ZM11.019 42.336C10.451 42.336 9.995 42.436 9.651 42.636C9.307 42.836 9.135 43.096 9.135 43.416C9.135 43.736 9.307 44 9.651 44.208C9.995 44.408 10.451 44.508 11.019 44.508C11.587 44.508 12.043 44.408 12.387 44.208C12.731 44 12.903 43.736 12.903 43.416C12.903 43.104 12.727 42.848 12.375 42.648C12.031 42.44 11.579 42.336 11.019 42.336ZM8.187 46.092H16.851V49.248H15.651V47.112H8.187V46.092ZM26.63 43.164H22.934V42.192H26.63V41.052H22.934V40.08H26.63V39H27.806V46.644H26.63V43.164ZM25.382 45.024C24.742 45.28 23.642 45.408 22.082 45.408H18.578V39.192H19.778V44.4H22.166C23.638 44.4 24.71 44.276 25.382 44.028V45.024ZM28.022 48.06V49.116H19.082V46.248H20.294V48.06H28.022ZM40.6602 44.436H31.8522V39.18H33.0282V40.62H39.4842V39.18H40.6602V44.436ZM39.4842 43.38V41.676H33.0282V43.38H39.4842ZM41.3802 46.632H36.8682V49.488H35.6442V46.632H31.1442V45.528H41.3802V46.632ZM48.8192 41.232H41.7752V40.188H44.6912V38.892H45.9032V40.188H48.8192V41.232ZM51.3152 39V49.248H50.1272V39H51.3152ZM45.9152 47.58C47.4912 47.58 48.6112 47.428 49.2752 47.124V48.204C48.9552 48.348 48.4992 48.456 47.9072 48.528C47.3232 48.6 46.6632 48.636 45.9272 48.636H41.7272V47.58H44.7152V46.056C43.9632 45.976 43.3752 45.756 42.9512 45.396C42.5272 45.028 42.3152 44.556 42.3152 43.98C42.3152 43.324 42.5832 42.808 43.1192 42.432C43.6632 42.048 44.3952 41.856 45.3152 41.856C46.2352 41.856 46.9632 42.048 47.4992 42.432C48.0432 42.808 48.3152 43.324 48.3152 43.98C48.3152 44.556 48.0992 45.028 47.6672 45.396C47.2432 45.764 46.6552 45.988 45.9032 46.068V47.58H45.9152ZM43.4432 43.98C43.4432 44.316 43.6032 44.592 43.9232 44.808C44.2512 45.016 44.7152 45.12 45.3152 45.12C45.9152 45.12 46.3752 45.016 46.6952 44.808C47.0232 44.592 47.1872 44.316 47.1872 43.98C47.1872 43.644 47.0232 43.368 46.6952 43.152C46.3752 42.936 45.9152 42.828 45.3152 42.828C44.7152 42.828 44.2512 42.936 43.9232 43.152C43.6032 43.368 43.4432 43.644 43.4432 43.98ZM63.0262 40.956V42.084H61.5862V44.664H60.3982V39H61.5862V40.956H63.0262ZM55.8982 42.372C55.5462 42.956 55.0702 43.432 54.4702 43.8C53.8782 44.16 53.2062 44.38 52.4542 44.46V43.392C53.2862 43.28 53.9542 42.944 54.4582 42.384C54.9702 41.816 55.2662 41.116 55.3462 40.284H52.5862V39.264H59.1262V40.284H56.5342C56.5102 40.668 56.4422 41.048 56.3302 41.424L59.4502 43.344L58.8622 44.232L55.8982 42.372ZM57.3502 45C58.6702 45 59.7302 45.172 60.5302 45.516C61.3382 45.86 61.7422 46.396 61.7422 47.124C61.7422 47.852 61.3382 48.388 60.5302 48.732C59.7302 49.076 58.6702 49.248 57.3502 49.248C56.0302 49.248 54.9662 49.076 54.1582 48.732C53.3582 48.388 52.9582 47.852 52.9582 47.124C52.9582 46.396 53.3582 45.86 54.1582 45.516C54.9662 45.172 56.0302 45 57.3502 45ZM57.3502 48.264C58.2782 48.264 59.0302 48.168 59.6062 47.976C60.1822 47.784 60.4702 47.5 60.4702 47.124C60.4702 46.748 60.1822 46.464 59.6062 46.272C59.0302 46.08 58.2782 45.984 57.3502 45.984C56.4302 45.984 55.6782 46.08 55.0942 46.272C54.5182 46.464 54.2302 46.748 54.2302 47.124C54.2302 47.5 54.5182 47.784 55.0942 47.976C55.6702 48.168 56.4222 48.264 57.3502 48.264Z" fill="#8186AD"/>
<path fill-rule="evenodd" clip-rule="evenodd" d="M38.109 8.30501C38.109 9.10854 37.9509 9.90421 37.6434 10.6466C37.336 11.389 36.8854 12.0636 36.3173 12.6318C35.7491 13.2 35.0747 13.6508 34.3323 13.9584C33.59 14.266 32.7944 14.4243 31.9908 14.4244C30.368 14.4246 28.8117 13.7801 27.664 12.6327C26.5164 11.4853 25.8716 9.92906 25.8715 8.30626C25.8714 7.50274 26.0296 6.70707 26.337 5.96467C26.6444 5.22228 27.095 4.54771 27.6632 3.97947C28.8105 2.83187 30.3668 2.18706 31.9896 2.18689C33.6124 2.18672 35.1688 2.83122 36.3164 3.97859C37.464 5.12596 38.1088 6.68222 38.109 8.30501M31.9902 16.2963C23.179 16.2963 19.7515 21.9038 19.7515 24.5125C19.7515 27.12 27.0477 27.815 31.9902 27.815C36.9327 27.815 44.229 27.12 44.229 24.5125C44.229 21.9038 40.8015 16.2963 31.9902 16.2963Z" fill="#8186AD"/>
</svg>
