<svg width="64" height="51" viewBox="0 0 64 51" fill="none" xmlns="http://www.w3.org/2000/svg">
<path d="M3.924 49.212C3.252 49.212 2.66 49.084 2.148 48.828C1.644 48.58 1.252 48.236 0.972 47.796C0.692 47.348 0.54 46.844 0.516 46.284H1.764C1.78 46.82 1.98 47.26 2.364 47.604C2.748 47.948 3.268 48.12 3.924 48.12C4.364 48.12 4.744 48.044 5.064 47.892C5.392 47.74 5.64 47.532 5.808 47.268C5.984 47.004 6.072 46.712 6.072 46.392C6.072 45.856 5.868 45.436 5.46 45.132C5.052 44.828 4.484 44.676 3.756 44.676H2.7V43.632H3.756C4.364 43.632 4.856 43.476 5.232 43.164C5.616 42.844 5.808 42.436 5.808 41.94C5.808 41.628 5.728 41.344 5.568 41.088C5.408 40.824 5.172 40.616 4.86 40.464C4.556 40.312 4.2 40.236 3.792 40.236C3.376 40.236 3.016 40.324 2.712 40.5C2.408 40.676 2.176 40.912 2.016 41.208C1.864 41.504 1.788 41.824 1.788 42.168H0.528C0.528 41.608 0.664 41.1 0.936 40.644C1.208 40.18 1.592 39.816 2.088 39.552C2.584 39.288 3.152 39.156 3.792 39.156C4.432 39.156 5 39.28 5.496 39.528C5.992 39.768 6.376 40.1 6.648 40.524C6.92 40.94 7.056 41.4 7.056 41.904C7.056 42.464 6.888 42.944 6.552 43.344C6.216 43.744 5.812 44 5.34 44.112C5.876 44.208 6.336 44.456 6.72 44.856C7.112 45.248 7.308 45.756 7.308 46.38C7.308 46.916 7.164 47.4 6.876 47.832C6.596 48.256 6.196 48.592 5.676 48.84C5.164 49.088 4.58 49.212 3.924 49.212ZM14.5224 40.884H7.56244V39.936H10.4424V38.82H11.6424V39.936H14.5224V40.884ZM18.3144 42.756H16.8744V45.54H15.6864V39H16.8744V41.616H18.3144V42.756ZM11.0424 45.408C10.4744 45.408 9.95844 45.328 9.49444 45.168C9.03044 45.008 8.66644 44.78 8.40244 44.484C8.13844 44.18 8.00644 43.824 8.00644 43.416C8.00644 43.016 8.13844 42.668 8.40244 42.372C8.66644 42.068 9.03044 41.836 9.49444 41.676C9.95844 41.516 10.4744 41.436 11.0424 41.436C11.6104 41.436 12.1224 41.516 12.5784 41.676C13.0424 41.836 13.4064 42.068 13.6704 42.372C13.9344 42.668 14.0664 43.016 14.0664 43.416C14.0664 43.824 13.9344 44.18 13.6704 44.484C13.4064 44.78 13.0424 45.008 12.5784 45.168C12.1224 45.328 11.6104 45.408 11.0424 45.408ZM11.0424 42.336C10.4744 42.336 10.0184 42.436 9.67444 42.636C9.33044 42.836 9.15844 43.096 9.15844 43.416C9.15844 43.736 9.33044 44 9.67444 44.208C10.0184 44.408 10.4744 44.508 11.0424 44.508C11.6104 44.508 12.0664 44.408 12.4104 44.208C12.7544 44 12.9264 43.736 12.9264 43.416C12.9264 43.104 12.7504 42.848 12.3984 42.648C12.0544 42.44 11.6024 42.336 11.0424 42.336ZM8.21044 46.092H16.8744V49.248H15.6744V47.112H8.21044V46.092ZM26.6534 43.164H22.9574V42.192H26.6534V41.052H22.9574V40.08H26.6534V39H27.8294V46.644H26.6534V43.164ZM25.4054 45.024C24.7654 45.28 23.6654 45.408 22.1054 45.408H18.6014V39.192H19.8014V44.4H22.1894C23.6614 44.4 24.7334 44.276 25.4054 44.028V45.024ZM28.0454 48.06V49.116H19.1054V46.248H20.3174V48.06H28.0454ZM40.6837 44.436H31.8757V39.18H33.0517V40.62H39.5077V39.18H40.6837V44.436ZM39.5077 43.38V41.676H33.0517V43.38H39.5077ZM41.4037 46.632H36.8917V49.488H35.6677V46.632H31.1677V45.528H41.4037V46.632ZM48.8426 41.232H41.7986V40.188H44.7146V38.892H45.9266V40.188H48.8426V41.232ZM51.3386 39V49.248H50.1506V39H51.3386ZM45.9386 47.58C47.5146 47.58 48.6346 47.428 49.2986 47.124V48.204C48.9786 48.348 48.5226 48.456 47.9306 48.528C47.3466 48.6 46.6866 48.636 45.9506 48.636H41.7506V47.58H44.7386V46.056C43.9866 45.976 43.3986 45.756 42.9746 45.396C42.5506 45.028 42.3386 44.556 42.3386 43.98C42.3386 43.324 42.6066 42.808 43.1426 42.432C43.6866 42.048 44.4186 41.856 45.3386 41.856C46.2586 41.856 46.9866 42.048 47.5226 42.432C48.0666 42.808 48.3386 43.324 48.3386 43.98C48.3386 44.556 48.1226 45.028 47.6906 45.396C47.2666 45.764 46.6786 45.988 45.9266 46.068V47.58H45.9386ZM43.4666 43.98C43.4666 44.316 43.6266 44.592 43.9466 44.808C44.2746 45.016 44.7386 45.12 45.3386 45.12C45.9386 45.12 46.3986 45.016 46.7186 44.808C47.0466 44.592 47.2106 44.316 47.2106 43.98C47.2106 43.644 47.0466 43.368 46.7186 43.152C46.3986 42.936 45.9386 42.828 45.3386 42.828C44.7386 42.828 44.2746 42.936 43.9466 43.152C43.6266 43.368 43.4666 43.644 43.4666 43.98ZM63.0496 40.956V42.084H61.6096V44.664H60.4216V39H61.6096V40.956H63.0496ZM55.9216 42.372C55.5696 42.956 55.0936 43.432 54.4936 43.8C53.9016 44.16 53.2296 44.38 52.4776 44.46V43.392C53.3096 43.28 53.9776 42.944 54.4816 42.384C54.9936 41.816 55.2896 41.116 55.3696 40.284H52.6096V39.264H59.1496V40.284H56.5576C56.5336 40.668 56.4656 41.048 56.3536 41.424L59.4736 43.344L58.8856 44.232L55.9216 42.372ZM57.3736 45C58.6936 45 59.7536 45.172 60.5536 45.516C61.3616 45.86 61.7656 46.396 61.7656 47.124C61.7656 47.852 61.3616 48.388 60.5536 48.732C59.7536 49.076 58.6936 49.248 57.3736 49.248C56.0536 49.248 54.9896 49.076 54.1816 48.732C53.3816 48.388 52.9816 47.852 52.9816 47.124C52.9816 46.396 53.3816 45.86 54.1816 45.516C54.9896 45.172 56.0536 45 57.3736 45ZM57.3736 48.264C58.3016 48.264 59.0536 48.168 59.6296 47.976C60.2056 47.784 60.4936 47.5 60.4936 47.124C60.4936 46.748 60.2056 46.464 59.6296 46.272C59.0536 46.08 58.3016 45.984 57.3736 45.984C56.4536 45.984 55.7016 46.08 55.1176 46.272C54.5416 46.464 54.2536 46.748 54.2536 47.124C54.2536 47.5 54.5416 47.784 55.1176 47.976C55.6936 48.168 56.4456 48.264 57.3736 48.264Z" fill="#8186AD"/>
<path fill-rule="evenodd" clip-rule="evenodd" d="M38.109 8.30501C38.109 9.10854 37.9509 9.90421 37.6434 10.6466C37.336 11.389 36.8854 12.0636 36.3173 12.6318C35.7491 13.2 35.0747 13.6508 34.3323 13.9584C33.59 14.266 32.7944 14.4243 31.9908 14.4244C30.368 14.4246 28.8117 13.7801 27.664 12.6327C26.5164 11.4853 25.8716 9.92906 25.8715 8.30626C25.8714 7.50274 26.0296 6.70707 26.337 5.96467C26.6444 5.22228 27.095 4.54771 27.6632 3.97947C28.8105 2.83187 30.3668 2.18706 31.9896 2.18689C33.6124 2.18672 35.1688 2.83122 36.3164 3.97859C37.464 5.12596 38.1088 6.68222 38.109 8.30501M31.9902 16.2963C23.179 16.2963 19.7515 21.9038 19.7515 24.5125C19.7515 27.12 27.0477 27.815 31.9902 27.815C36.9327 27.815 44.229 27.12 44.229 24.5125C44.229 21.9038 40.8015 16.2963 31.9902 16.2963Z" fill="#8186AD"/>
</svg>
